<svg id="图层_1" data-name="图层 1" xmlns="http://www.w3.org/2000/svg" viewBox="0 0 422.44 531.56"><title>LOGO_Rafiki-4</title><path d="M335,63.49a176.81,176.81,0,0,1,16.88,16,197.85,197.85,0,0,1,53.23,145.77c-0.09,1.73-.26,3.46-0.3,5.2a10.33,10.33,0,0,1-1.26-.34,243.26,243.26,0,0,1-23.06-10.87,2.59,2.59,0,0,0-1.23-.39,39.51,39.51,0,0,0-6.6-.86c-5.54-.58-11.09-1-16.65-1.46-4.92-.38-9.85-0.68-14.79-1q-5.79-.32-11.59-0.48c-4.19-.11-8.38,0-12.58-0.23-2.71-.13-5.43.14-8.14,0.13-5.15,0-10.29.25-15.43,0.58-4.17.26-8.33,0.7-12.47,1.23a16.46,16.46,0,0,0-5.24,1.08c-6.91,3.38-13.78,6.84-20.68,10.24a36.72,36.72,0,0,1-5.38,2.54,16.8,16.8,0,0,0-1.8-13.47c-0.8-1.28-1.64-2.55-2.45-3.82,0.62-.26,1.23-0.55,1.86-0.78a43.58,43.58,0,0,1,7.59-2c1.07-.18.88-0.6,0.61-1.25a25.34,25.34,0,0,0-6-8.52,58.65,58.65,0,0,0-6.4-5l0.73-.62c4.6-3.83,8.84-8,11.75-13.3,3.5-6.4,3.19-12.61-.92-17.71a9.14,9.14,0,0,0-9.24-3.48,22.74,22.74,0,0,0-7.82,3.21,2.78,2.78,0,0,1-.75-1.47,46.26,46.26,0,0,0-2.58-6.69,77.18,77.18,0,0,0-6.47-11.29,67.66,67.66,0,0,0-13.69-14.6A60,60,0,0,0,195.94,120a57.9,57.9,0,0,0-15.57-2.86,39.13,39.13,0,0,0-9,.41c-0.77.14-1.06-.15-1.07-1a8.63,8.63,0,0,1,.55-3.64c1.54-3.46,5-5.59,8.87-4a7.29,7.29,0,0,1,3.77,3.63,8.7,8.7,0,0,0-.72-3.82,6.59,6.59,0,0,0-4.18-4.15,11.42,11.42,0,0,0-7.94.5c-3.66,1.4-5.53,3.23-5.16,7.52,0.1,1.09.77,2,.75,3.14-1.93-1.75-3.05-6.16-2.39-9.5a9.89,9.89,0,0,1,10-8.35,11.34,11.34,0,0,1,4.95,1.17c0.22,0.11.58,0.48,0.82,0.06a0.65,0.65,0,0,0-.31-0.72c-0.43-.48-0.86-0.95-1.27-1.43a11,11,0,0,0-14.27-2.49,21.87,21.87,0,0,0-8.49,8.36,8.91,8.91,0,0,0,.14,9.43,19.17,19.17,0,0,0,6.11,6c0.32,0.21.85,0.33,0.76,0.81a1,1,0,0,1-.91.44A81.37,81.37,0,0,0,141.9,128,58.61,58.61,0,0,0,123,145.78a56.52,56.52,0,0,0-9.27,25.61,19.82,19.82,0,0,1-.33,3.49,0.76,0.76,0,0,1-.61-0.74c-2.33-6.91-4.67-13.82-6.79-20.8a3.39,3.39,0,0,1-.06-1.66c0.63-3.2,1.23-6.41,1.93-9.6,1.39-6.34,2.55-12.72,3.82-19.08q2.75-13.75,5.26-27.55a2.07,2.07,0,0,1,.81-1.54c3.13-2.06,6.16-4.26,9.37-6.18A195.76,195.76,0,0,1,145.46,78c5-2.31,10-4.47,15.2-6.35a179.25,179.25,0,0,1,23.41-6.78q8-1.74,16.12-2.75c5.14-.63,10.29-1.15,15.46-1.31a155.33,155.33,0,0,1,22.59.87c6.06,0.69,12,1.79,18,3.08,3.41,0.74,6.57,2.22,9.91,3.13,3.78,1,7.62,1.58,11.24-.6,2.82-1.7,4.27-4.1,1.45-7.19-3.8-4.17-9-5.87-14.09-7.44a88.63,88.63,0,0,0-15.45-3c-5.15-.61-10.31-1-15.49-1.11-6.11-.13-12.21,0-18.32.38-4.62.27-9.23,0.57-13.82,1.09-6.24.7-12.48,1.42-18.68,2.51a176.72,176.72,0,0,0-40.54,12.15,187.47,187.47,0,0,0-19.62,9.88,5.69,5.69,0,0,1-2.11,1,8.87,8.87,0,0,1,.18-2.43A79.68,79.68,0,0,0,122.42,61a1.23,1.23,0,0,1,.8.46,11.33,11.33,0,0,0,6.6,2.13,1.17,1.17,0,0,0,1.45-1.34,51.85,51.85,0,0,1,1.06-7.68,167.38,167.38,0,0,1,5.48-20,1.84,1.84,0,0,1,.91-1.21l4.06-1.4a201.91,201.91,0,0,1,40.31-9.73c6.74-.89,13.49-1.55,20.27-1.77,6.19-.2,12.39-0.19,18.59.12a196.28,196.28,0,0,1,94.59,29.73,155.17,155.17,0,0,1,14.1,9.91,12.24,12.24,0,0,0,3.24,2.36,0.19,0.19,0,0,0,.25.23l-0.06,0,0.05-.05a0.28,0.28,0,0,0,.38.3l0.08,0C334.59,63.41,334.66,63.59,335,63.49Z" transform="translate(-1.19 -4.82)" style="fill:#35351f"/><path d="M249.69,230.65a36.72,36.72,0,0,0,5.38-2.54c6.9-3.4,13.77-6.86,20.68-10.24a16.46,16.46,0,0,1,5.24-1.08c4.14-.53,8.3-1,12.47-1.23,5.13-.32,10.27-0.59,15.43-0.58,2.71,0,5.43-.26,8.14-0.13,4.19,0.2,8.39.12,12.58,0.23q5.8,0.15,11.59.48c4.93,0.27,9.86.58,14.79,1,5.55,0.42,11.11.88,16.65,1.46a39.49,39.49,0,0,1,6.6.86,1,1,0,0,1-.75.29,68.42,68.42,0,0,0-30.76,13.69c-3.56,2.82-6.8,6-8.83,10.12-1.23,2.52-1.56,5,.56,7.34a2.68,2.68,0,0,1-1.59-.39c-8.13-2.26-16.22-4.69-24.37-6.89q-15.46-4.17-31-8.12a4,4,0,0,0-2.35,0c-5,1.74-10,3.61-14.91,5.76-6.93,3.06-13.74,6.37-20.38,10-3.9,2.16-7.79,4.32-11.62,6.58Q225,262.17,217,267.53c-4.7,3.15-9.31,6.43-13.94,9.68-1.74,1.22-1.87,2.42-1.37,4.11,0.07,0.23.13,0.46,0.18,0.69a36.45,36.45,0,0,0,11.82,20.15,45.13,45.13,0,0,0,19,9.63,2.51,2.51,0,0,0,1.94-.22c2.54-1.33,5.06-2.69,7.65-3.93,4.64-2.23,9.39-4.18,14.21-6,4.22-1.59,8.51-3,12.83-4.19,5.32-1.51,10.73-2.68,16.17-3.7,4.93-.92,9.9-1.6,14.88-2.12,4.28-.44,8.57-0.84,12.87-0.93a158.24,158.24,0,0,1,23.32.72c-3,2.76-6,5.53-9,8.28-4.72,4.31-9.35,8.72-14.21,12.86-5.86,5-8.59,13.94-6.32,21.3A21.44,21.44,0,0,0,311.1,341a1,1,0,0,1-.69-0.11q-8.55-4.67-17.52-8.48a120.37,120.37,0,0,0-22.71-7.33A65.06,65.06,0,0,0,248.32,324a57.24,57.24,0,0,0-18.25,5.76c-3.84,1.94-7.51,4.18-11.25,6.31a74.79,74.79,0,0,0-15.17,11.53,90.09,90.09,0,0,0-7.4,8.27,95.18,95.18,0,0,0-8,11.59,1,1,0,0,0,.25,1.61,47.93,47.93,0,0,1,7.14,7,167.2,167.2,0,0,1,11,14.44c4.21,6.1,8.12,12.39,11.95,18.73,0.69,1.15,1.14,2.47,2.22,3.36,0.12,1.25,1,2.17,1.55,3.18a128.25,128.25,0,0,1,12.54,28.4c0,0.15.07,0.31,0.1,0.47a11.14,11.14,0,0,1-1.19,0c-3.23-.37-6.46-0.75-9.69-1.15s-6.47-.77-9.68-1.3q-6.34-1-12.64-2.35c-1-.21-2.28,0-3-1.13a101.91,101.91,0,0,0-2.29-14.25,66.06,66.06,0,0,0-3.86-11.89,27.77,27.77,0,0,0-2.09-4.95,102.06,102.06,0,0,0-8-13.46c-3.12-4.5-6.61-8.69-10.06-12.91-4.37-5.33-9-10.47-13.14-16-0.67-.89-1.17-2-2.59-2.28a114.54,114.54,0,0,1-12.61-3.7,168.1,168.1,0,0,1-24-10.47,149.88,149.88,0,0,1-32.74-23.43,135.75,135.75,0,0,1-13.72-15,141.34,141.34,0,0,1-11.46-17,153.21,153.21,0,0,1-7.87-16,156.11,156.11,0,0,1-5.65-15.86c-1.32-4.39-2.49-8.83-3.4-13.32q-1.78-8.83-2.78-17.8c-0.54-4.91-.95-9.84-1.08-14.77A159.28,159.28,0,0,1,42.42,194q0.78-7.07,2.1-14a140.83,140.83,0,0,1,4.38-16.87,145.25,145.25,0,0,1,8.23-20.23A152.36,152.36,0,0,1,65.59,128c2.3-3.55,4.77-7,7.34-10.32,2.36-3.07,4.86-6,7.43-8.9a1.89,1.89,0,0,0,.72-1.8c-0.5-1.93-.94-3.87-1.46-5.79-1.32-4.92-2.68-9.84-4-14.76-1-3.58-2-7.13-3.16-10.65a77.94,77.94,0,0,1,7.49-8,1.18,1.18,0,0,1,.44-0.15A22.41,22.41,0,0,0,94,68.85a33.59,33.59,0,0,0,13.11-6.06,13.69,13.69,0,0,0,7.35.86c2.1-.34,2.21-0.35,2.46-2.49,0.36-3,.79-6.06,1.2-9.08a6.71,6.71,0,0,1,.67,2.37,16.86,16.86,0,0,0,3.68,6.6,79.71,79.71,0,0,1-1.55,12.07,8.87,8.87,0,0,0-.18,2.43,5.69,5.69,0,0,0,2.11-1,187.47,187.47,0,0,1,19.62-9.88A176.72,176.72,0,0,1,183,52.49c6.2-1.09,12.44-1.81,18.68-2.51,4.59-.51,9.2-0.82,13.82-1.09,6.11-.35,12.21-0.52,18.32-0.38,5.18,0.11,10.34.5,15.49,1.11a88.63,88.63,0,0,1,15.45,3c5.14,1.57,10.29,3.27,14.09,7.44,2.82,3.09,1.37,5.49-1.45,7.19-3.62,2.18-7.45,1.64-11.24.6-3.34-.91-6.5-2.39-9.91-3.13-6-1.29-11.93-2.38-18-3.08a155.33,155.33,0,0,0-22.59-.87c-5.17.16-10.32,0.68-15.46,1.31q-8.13,1-16.12,2.75a179.25,179.25,0,0,0-23.41,6.78c-5.16,1.89-10.21,4-15.2,6.35a195.76,195.76,0,0,0-18.37,9.76c-3.21,1.92-6.25,4.12-9.37,6.18a2.07,2.07,0,0,0-.81,1.54q-2.5,13.8-5.26,27.55c-1.27,6.36-2.43,12.74-3.82,19.08-0.7,3.19-1.3,6.4-1.93,9.6a3.39,3.39,0,0,0,.06,1.66c2.12,7,4.46,13.89,6.79,20.8a0.76,0.76,0,0,0,.61.74,19.82,19.82,0,0,0,.33-3.49A56.52,56.52,0,0,1,123,145.78,58.61,58.61,0,0,1,141.9,128a81.37,81.37,0,0,1,19.56-8.5,1,1,0,0,0,.91-0.44c0.09-.47-0.44-0.6-0.76-0.81a19.17,19.17,0,0,1-6.11-6,8.91,8.91,0,0,1-.14-9.43,21.87,21.87,0,0,1,8.49-8.36A11,11,0,0,1,178.12,97c0.42,0.48.85,1,1.27,1.43a0.65,0.65,0,0,1,.31.72c-0.25.42-.6,0-0.82-0.06a11.34,11.34,0,0,0-4.95-1.17,9.89,9.89,0,0,0-10,8.35c-0.66,3.34.47,7.75,2.39,9.5,0-1.14-.66-2.05-0.75-3.14-0.38-4.29,1.5-6.12,5.16-7.52a11.42,11.42,0,0,1,7.94-.5,6.59,6.59,0,0,1,4.18,4.15,8.7,8.7,0,0,1,.72,3.82,7.29,7.29,0,0,0-3.77-3.63c-3.89-1.57-7.33.56-8.87,4a8.63,8.63,0,0,0-.55,3.64c0,0.81.3,1.1,1.07,1a39.13,39.13,0,0,1,9-.41A57.9,57.9,0,0,1,195.94,120a60,60,0,0,1,18.17,9.87,67.66,67.66,0,0,1,13.69,14.6,77.18,77.18,0,0,1,6.47,11.29,46.26,46.26,0,0,1,2.58,6.69,2.78,2.78,0,0,0,.75,1.47c0.31,2.53,1.21,4.92,1.69,7.4s0.81,5,1,7.5c0.05,1,.12,2,0.15,3a62.82,62.82,0,0,1-.64,10.87c-0.09.56-.42,1.28,0.41,1.69s1.92,1,2.87,1.47a58.65,58.65,0,0,1,6.4,5,25.34,25.34,0,0,1,6,8.52c0.26,0.65.45,1.07-.61,1.25a43.58,43.58,0,0,0-7.59,2c-0.63.23-1.24,0.52-1.86,0.78a17.71,17.71,0,0,0-10-6.76,1.08,1.08,0,0,1-1-1.43,69.24,69.24,0,0,0,.27-14.59,32.68,32.68,0,0,0-3.44-12.87,13.35,13.35,0,0,0-8.94-7c-8-1.88-14.06,1.09-17.35,8.58-0.55,1.25-.91,2.58-1.37,3.9a1.06,1.06,0,0,1-.18-0.21c-3.76-8.79-10.57-13.18-20-13.48-7.13-.23-13.82,1.74-20.17,4.85a28.53,28.53,0,0,0-9.66,7.55c-7.21,8.8-6.62,21.55-1.18,30.47,0.95,1.55,1,1.47-.73,2-8.53,2.52-14.61,7.55-16.71,16.56-1.72,7.37-.2,13.76,5.69,18.86a45.78,45.78,0,0,0,17.32,9,94,94,0,0,0,32.35,3.42,119.75,119.75,0,0,0,20.83-3c8.73-2.06,17.06-5.12,24.48-10.3C242.25,244.3,247.44,238.59,249.69,230.65ZM96,175.65a1.12,1.12,0,0,0,0-.24c-1.86-7.38-3.17-14.86-4.62-22.33C90,146,88.43,138.9,86.86,131.82a52.71,52.71,0,0,0-2-7.74,1,1,0,0,0-.28.39c-2.61,3.07-4.91,6.36-7.26,9.64a127.73,127.73,0,0,0-8.59,14,124.24,124.24,0,0,0-8.72,20.54,130.33,130.33,0,0,0-5.16,22.44,107.64,107.64,0,0,0-1.05,10.81,151.28,151.28,0,0,0,.34,18.56c0.49,5.56,1.37,11.06,2.33,16.54,0.88,5,2,9.9,3.39,14.78a171.08,171.08,0,0,0,8,22.9,144.42,144.42,0,0,0,14.61,26A130,130,0,0,0,96.9,317.78a135.24,135.24,0,0,0,17,14.29A133.13,133.13,0,0,0,146.06,349a13.26,13.26,0,0,0,3.47,1.05c-0.17-.38-0.27-0.64-0.4-0.88a70.89,70.89,0,0,1-6.06-16.93A107.34,107.34,0,0,1,140.85,316c-0.18-2.51-.37-5-0.51-7.52-0.22-4-.74-7.94-0.85-11.92-0.15-5.64,0-11.28,0-16.92,0-.8.1-1.59,0.15-2.38,0.07-1.25.42-2.58-.23-3.77-1.08-2-2.24-3.86-3.36-5.79-3.87-6.69-7.52-13.51-11.1-20.37-1.85-3.54-3.61-7.13-5.38-10.72a1,1,0,0,0-1.29-.68c-1.16.43-2.38,0.62-3.54,1.1a22.87,22.87,0,0,0-4.35,2.18,4.64,4.64,0,0,1,.12-0.84c1.13-2.8,2.2-5.63,3.59-8.33,0.48-.92,1.44-1.83.89-3.07-1.1-2.48-2.24-4.94-3.36-7.41a39.35,39.35,0,0,0,11.92-.51c6.14-1.29,11.39-4.07,15.33-9.08a1.85,1.85,0,0,0,.41-1.74A58.81,58.81,0,0,0,131.4,189c-3.1-4.76-6.95-8.76-12.25-11.12-4.75-2.12-9.84-2.59-14.95-2.89A35.75,35.75,0,0,0,96,175.65Zm72.23,140.19a31.69,31.69,0,0,0,1.27,9.35c1.31,4.35,3.31,8.31,7.57,10.49a17.8,17.8,0,0,0,12,1.42c10.68-2.29,18.46-8.55,23.73-18a5.94,5.94,0,0,0,.39-5,24.32,24.32,0,0,0-1.39-3.44A55.57,55.57,0,0,0,201.61,297a38.27,38.27,0,0,0-10.82-8,10.28,10.28,0,0,0-9.76.16,20.08,20.08,0,0,0-7.61,7.29C169.73,302.36,168.34,308.93,168.22,315.84Z" transform="translate(-1.19 -4.82)" style="fill:#9d4735"/><path d="M198.84,438.74c0.69,1.15,2,.92,3,1.13q6.29,1.31,12.64,2.35c3.21,0.53,6.45.89,9.68,1.3s6.46,0.78,9.69,1.15a11.14,11.14,0,0,0,1.19,0c8.53,0.69,17.08,1.06,25.64.92a269.9,269.9,0,0,0,34.75-2.74,245.8,245.8,0,0,0,42.94-10.16,213.85,213.85,0,0,0,47-22.23c3.27-2.08,6.51-4.21,9.61-6.53,1.63-1.21,3-2.74,4.6-4,3.68-3,7.64-5.41,12.4-6.21a12.93,12.93,0,0,1,8.39,1.21,5.52,5.52,0,0,1,3.13,6.45,19.38,19.38,0,0,1-4,8.07,63.09,63.09,0,0,1-14.22,12.94c-11,7.69-22.92,13.47-35.29,18.46a330.19,330.19,0,0,1-40.87,13.29,389,389,0,0,1-41.22,8.71c-6.76,1-13.56,1.62-20.39,2a270.92,270.92,0,0,1-27.46.2c-0.24,0-.48,0-0.72,0-4.24-.32-8.48-0.61-12.71-1-2.45-.21-4.9-0.49-7.34-0.8-3.23-.42-6.45-0.85-9.66-1.36a100.89,100.89,0,0,1-9.93-1.87c-1.87-.1-3.63-0.76-5.47-1-6.14-1.45-12.26-3-18.32-4.74A260.07,260.07,0,0,1,140.46,441a240.29,240.29,0,0,1-35.68-20.33A228.9,228.9,0,0,1,34.19,342.8,252.48,252.48,0,0,1,14.6,297.18a292.32,292.32,0,0,1-9.95-41.41,261.18,261.18,0,0,1-3-27.5,232.59,232.59,0,0,1-.11-26A220.84,220.84,0,0,1,6.86,164.1a210.23,210.23,0,0,1,13.53-39.73,213.92,213.92,0,0,1,15-27.28A232,232,0,0,1,61.5,63.88c1.67-1.77,3.47-3.41,5-5.31a1,1,0,0,0,.92-1A1.08,1.08,0,0,0,68.3,57a4.08,4.08,0,0,1,4.2-2.11,23.82,23.82,0,0,0,9.16-1.51c-1.85,4.05-1.37,7.36,2.1,10a1.15,1.15,0,0,1-.45,1c-0.81.79-1.59,1.61-2.43,2.37a1,1,0,0,0-.48.86,1.18,1.18,0,0,0-.44.15,77.9,77.9,0,0,0-7.49,8,11.55,11.55,0,0,0-.88.81A195.86,195.86,0,0,0,39.71,125.5,188,188,0,0,0,32,144.87a212.52,212.52,0,0,0-7.88,31.79,219.63,219.63,0,0,0-2.94,28.67,258.81,258.81,0,0,0,.32,26q0.78,11.83,2.44,23.56c1.27,8.89,2.88,17.72,5,26.44A202.33,202.33,0,0,0,41,316.78c3.74,8.3,7.7,16.49,12.9,24a0.54,0.54,0,0,0,.34.74l0,0a1,1,0,0,0,.31.76c2.65,4.19,5.41,8.3,8.37,12.28a207,207,0,0,0,35.37,37A225.16,225.16,0,0,0,131.61,414a246.23,246.23,0,0,0,51.17,21.11q7.19,2.08,14.49,3.74C197.72,439,198.38,439.56,198.84,438.74Z" transform="translate(-1.19 -4.82)" style="fill:#cc8027"/><path d="M220.81,412.65c-1.09-.89-1.53-2.22-2.22-3.36-3.83-6.34-7.74-12.63-11.95-18.73a167.2,167.2,0,0,0-11-14.44,47.93,47.93,0,0,0-7.14-7,1,1,0,0,1-.25-1.61,95.18,95.18,0,0,1,8-11.59,90.09,90.09,0,0,1,7.4-8.27,74.79,74.79,0,0,1,15.17-11.53c3.74-2.12,7.41-4.37,11.25-6.31A57.24,57.24,0,0,1,248.32,324a65.06,65.06,0,0,1,21.86,1.07,120.37,120.37,0,0,1,22.71,7.33q9,3.8,17.52,8.48a1,1,0,0,0,.69.11l1.28,1.07a19.14,19.14,0,0,0,7.15,3.92c2.14,0.6,4.26.14,6.39,0.05a28.19,28.19,0,0,0,8,0,31.83,31.83,0,0,0,15.33-5.65c5.75-4.14,9.87-9.73,13.59-15.63,1.7-2.69,3.24-5.49,4.85-8.24a15,15,0,0,0,5,.39c1.31-.14,2.62-0.25,3.92-0.44,0.41-.06.48,0.09,0.51,0.41a198,198,0,0,1-105.53,85.48A193.84,193.84,0,0,1,220.81,412.65Z" transform="translate(-1.19 -4.82)" style="fill:#35351f"/><path d="M336.55,291.42a158.24,158.24,0,0,0-23.32-.72c-4.29.09-8.59,0.49-12.87,0.93-5,.51-9.95,1.19-14.88,2.12-5.44,1-10.85,2.19-16.17,3.7-4.32,1.23-8.61,2.6-12.83,4.19-4.82,1.82-9.57,3.77-14.21,6-2.58,1.24-5.11,2.6-7.65,3.93a2.51,2.51,0,0,1-1.94.22,45.13,45.13,0,0,1-19-9.63A36.45,36.45,0,0,1,201.83,282c-0.05-.23-0.11-0.47-0.18-0.69-0.5-1.69-.37-2.89,1.37-4.11,4.63-3.24,9.24-6.53,13.94-9.68q8-5.36,16.27-10.24c3.84-2.26,7.73-4.43,11.62-6.58,6.64-3.67,13.45-7,20.38-10,4.87-2.15,9.87-4,14.91-5.76a4,4,0,0,1,2.35,0q15.52,3.94,31,8.12c8.15,2.2,16.24,4.63,24.37,6.89a2.68,2.68,0,0,0,1.59.39,18,18,0,0,0,2.11,1.06A88.85,88.85,0,0,1,353,256.46c8.86,4.63,17.38,9.83,25.75,15.29,0.84,0.55,1.23.5,1.7-.41a14,14,0,0,0,1-11.57,25.91,25.91,0,0,0-6.88-10,55.76,55.76,0,0,0-4.72-3.89,24.06,24.06,0,0,1,9.51-2.71,31.26,31.26,0,0,0,11.44,8,15.08,15.08,0,0,0-3.07,2.73,9.08,9.08,0,0,0-2.25,8.76c1.09,4,4,6.71,7,9.29,0.49,0.42.82,0.15,1.22-.21,1.15-1,2.08-2.29,3.49-3a1.36,1.36,0,0,1,.45,1L396,275.35a2.13,2.13,0,0,1-1,.62c-8.49,2.6-16.83,5.65-25.22,8.52a59.22,59.22,0,0,1-6.89,2.3,20.8,20.8,0,0,0,1.63-4.74c0.92-4.4-.41-8.16-3.59-10.3a1.23,1.23,0,0,0-1.76,0c-5.78,4.68-11.32,9.63-16.88,14.56C340.38,288.05,338.6,289.89,336.55,291.42Z" transform="translate(-1.19 -4.82)" style="fill:#35351f"/><path d="M333.89,62.59a12.22,12.22,0,0,1-3.24-2.36,155.17,155.17,0,0,0-14.1-9.91A195.4,195.4,0,0,0,222,20.59c-6.2-.31-12.4-0.32-18.59-0.12-6.78.22-13.53,0.88-20.27,1.77A201.91,201.91,0,0,0,142.79,32l-4.06,1.4a0.78,0.78,0,0,1-.12-1.14c0.21-.42.47-0.82,0.67-1.25,0.9-1.95.61-2.75-1.2-3.87a15,15,0,0,0-2.55-1.43,28.33,28.33,0,0,0-5.25-1.9c-3-.52-4.07-1.39-4.27-3.81a201.06,201.06,0,0,1,29.09-9.58A185.6,185.6,0,0,1,192.48,5a176.83,176.83,0,0,1,35.7,2.19,184.55,184.55,0,0,1,50.9,16.32,207,207,0,0,1,34.25,21,201.07,201.07,0,0,1,20.48,17.86A0.57,0.57,0,0,1,333.89,62.59Z" transform="translate(-1.19 -4.82)" style="fill:#cc8027"/><path d="M379.34,243.2a24.06,24.06,0,0,0-9.51,2.71,55.76,55.76,0,0,1,4.72,3.89,25.91,25.91,0,0,1,6.88,10,14,14,0,0,1-1,11.57c-0.48.91-.86,1-1.7,0.41-8.37-5.46-16.89-10.66-25.75-15.29a88.85,88.85,0,0,0-11.46-5.15,18,18,0,0,1-2.11-1.06c-2.12-2.3-1.79-4.82-.56-7.34,2-4.15,5.27-7.3,8.83-10.12a68.42,68.42,0,0,1,30.76-13.69,1,1,0,0,0,.75-0.29,2.59,2.59,0,0,1,1.23.39,243.26,243.26,0,0,0,23.06,10.87,10.33,10.33,0,0,0,1.26.34,25.2,25.2,0,0,0,5.57,2.12,2.7,2.7,0,0,1,2.2,2.53c0.47,3,1.16,6,1.56,9.06,0.61,4.63,1.09,9.27-.07,13.9a2.88,2.88,0,0,1-.56,1.17q-5.08,6.2-10.15,12.4a1.22,1.22,0,0,1-1.67.4,16.22,16.22,0,0,1-2.95-1.82,1.7,1.7,0,0,0-1.06-.46,1.36,1.36,0,0,0-.45-1,7.22,7.22,0,0,1-1.51-7.55,16.43,16.43,0,0,1,4.53-6.48,0.92,0.92,0,0,0,.32-1.23c-1.33-2.63-2.65-5.27-3.93-7.92a2,2,0,0,0-1.55-1.16c-1.6-.33-3.2-0.61-4.81-0.87A35.32,35.32,0,0,0,379.34,243.2Z" transform="translate(-1.19 -4.82)" style="fill:#ecba95"/><path d="M194.17,459.11c1.84,0.25,3.6.9,5.47,1a72.61,72.61,0,0,0,1.24,7.54,51.82,51.82,0,0,0,11.78,23.48,53.13,53.13,0,0,0,24.7,15.76,28.7,28.7,0,0,1-2.51,7.32,8.6,8.6,0,0,0-1.07,2.69,1.23,1.23,0,0,0-.77.84,37.23,37.23,0,0,1-14.9,13.57,42.18,42.18,0,0,1-9.13,3.49,6.76,6.76,0,0,1-2.82.14,0.66,0.66,0,0,0-.12-0.32,43.28,43.28,0,0,1-8.64-6c-0.61-.5-1-1.38-2-1.35a1.66,1.66,0,0,0-.74-1c-3.43-3.46-6.95-6.84-10.21-10.47-1-1.14-2.14-2.22-1.79-4,0.49-2.57.85-5.17,1.26-7.75,0.63-3.24,1.24-6.48,1.9-9.71,1.28-6.24,2.78-12.43,4.33-18.61,1.32-5.26,2.65-10.51,4.14-15.71A1.12,1.12,0,0,0,194.17,459.11Z" transform="translate(-1.19 -4.82)" style="fill:#ecba95"/><path d="M362.89,286.8a59.22,59.22,0,0,0,6.89-2.3c8.4-2.87,16.74-5.92,25.22-8.52a2.13,2.13,0,0,0,1-.62,1.12,1.12,0,0,0,.89,1l18.47,9,7.49,3.68a0.84,0.84,0,0,1,.66,1.06,13.48,13.48,0,0,1-12.57,10.61c-2.18.56-4.36,0.1-6.52-.14a38.42,38.42,0,0,1-9.65-2.55,1.74,1.74,0,0,0-2.16.43,17.16,17.16,0,0,1-6.72,4.16,33.82,33.82,0,0,1-11.77,2.17,1.33,1.33,0,0,0-1.44.63c-1,2.26-1.9,4.53-2.84,6.79a19.65,19.65,0,0,0-2.15,4.32c-1.61,2.75-3.15,5.55-4.85,8.24-3.72,5.9-7.84,11.49-13.59,15.63a31.83,31.83,0,0,1-15.33,5.65,28.19,28.19,0,0,1-8,0,1.27,1.27,0,0,1,1-.87,8,8,0,0,0,2.65-1.31c3.31-2.23,5.84-5.29,8.53-8.18,1.84-2,3.53-4.08,5.36-6.06,1.56-1.69,3.27-3.23,4.71-5A17.86,17.86,0,0,0,352.3,313a19.28,19.28,0,0,0-1.94-8.4,1.16,1.16,0,0,1,.1-1.43c1-1.05,1.95-2.09,2.91-3.15,1.44-1.59,3-3.09,4.25-4.81A49.22,49.22,0,0,0,362.89,286.8Z" transform="translate(-1.19 -4.82)" style="fill:#daa77f"/><path d="M237.36,506.89a53.13,53.13,0,0,1-24.7-15.76,51.82,51.82,0,0,1-11.78-23.48,72.61,72.61,0,0,1-1.24-7.54,100.79,100.79,0,0,0,9.93,1.87c3.21,0.52,6.44.95,9.66,1.36,2.44,0.31,4.89.59,7.34,0.8,4.23,0.36,8.47.65,12.71,1,0.58,5.15.81,10.33,1.08,15.51a5.77,5.77,0,0,0-.13.82,126.8,126.8,0,0,1-1.44,18.7A34.15,34.15,0,0,1,237.36,506.89Z" transform="translate(-1.19 -4.82)" style="fill:#9d4735"/><path d="M126,20c0.21,2.42,1.24,3.3,4.27,3.81a28.33,28.33,0,0,1,5.25,1.9,15,15,0,0,1,2.55,1.43c1.81,1.12,2.1,1.93,1.2,3.87-0.2.43-.46,0.83-0.67,1.25a0.78,0.78,0,0,0,.12,1.14,1.84,1.84,0,0,0-.91,1.21,167.38,167.38,0,0,0-5.48,20,51.85,51.85,0,0,0-1.06,7.68,1.17,1.17,0,0,1-1.45,1.34,11.33,11.33,0,0,1-6.6-2.13,1.23,1.23,0,0,0-.8-0.46,16.86,16.86,0,0,1-3.68-6.59,6.71,6.71,0,0,0-.67-2.37c0.14-1.18.33-2.36,0.42-3.54,0.14-1.82.73-3.61,0.53-5.45-0.38-3.43-.91-6.84-1.56-10.22C116.75,29.25,116,25.65,115.2,22c-0.06-.28,0-0.66-0.4-0.63-1.13.09-2-.62-3.11-0.78a78,78,0,0,0-9.11-.9,122.9,122.9,0,0,0-16.12.39L94.38,8.56a1.19,1.19,0,0,1,1.06-.65c8,0.1,15.87.43,23.65,2.34a5.59,5.59,0,0,1,4.11,3.62A45.53,45.53,0,0,0,126,20Z" transform="translate(-1.19 -4.82)" style="fill:#c68a5b"/><path d="M86.46,20.12a122.9,122.9,0,0,1,16.12-.39,78,78,0,0,1,9.11.9c1.07,0.16,2,.87,3.11.78,0.36,0,.34.35,0.4,0.63,0.75,3.61,1.55,7.22,2.26,10.84,0.66,3.38,1.19,6.79,1.56,10.22,0.2,1.84-.39,3.63-0.53,5.45-0.09,1.18-.28,2.36-0.42,3.54-0.4,3-.83,6.05-1.2,9.08-0.26,2.14-.36,2.15-2.46,2.49a13.69,13.69,0,0,1-7.35-.86c-0.2-.84-1.07-1.1-1.51-1.75a10.23,10.23,0,0,1-1.51-7.15c0.11-1,.82-2.34.17-3.1a8,8,0,0,0-3.42-2.55c-0.08-2.22-.19-4.43-0.23-6.65a2.52,2.52,0,0,0-1.75-2.54c-4.14-1.71-8.23-3.54-12.63-4.52a52.44,52.44,0,0,0-8.76-1.67q2.85-4.16,5.7-8.33c0.81-1.18,1.64-2.33,2.46-3.5A1.74,1.74,0,0,1,86.46,20.12Z" transform="translate(-1.19 -4.82)" style="fill:#daa77f"/><path d="M77.43,32.86a52.44,52.44,0,0,1,8.76,1.67c4.4,1,8.49,2.81,12.63,4.52a2.52,2.52,0,0,1,1.75,2.54c0,2.22.15,4.43,0.23,6.65,0.15,2.37.29,4.75,0.46,7.12a1.43,1.43,0,0,1-.93,1.68c-4.45,1.93-8.74,4.18-13,6.53-1.38.76-2.46,1.17-3.6-.18-3.47-2.61-3.95-5.92-2.1-10a23.82,23.82,0,0,1-9.16,1.51,2,2,0,0,0-.54-0.2,27,27,0,0,1-4.1-.64c-1.38-.3-2.55-1.17-4-1.29a10,10,0,0,1,1.8-2.87c2.72-4,5.57-8,8.26-12,0.9-1.35,1.72-2.77,2.63-4.13A2,2,0,0,1,77.43,32.86Z" transform="translate(-1.19 -4.82)" style="fill:#ecba95"/><path d="M367.68,316.55a19.64,19.64,0,0,1,2.15-4.32,2.18,2.18,0,0,0,.67-0.21c2.53-1.89,5.31-3.39,7.94-5.12a2.75,2.75,0,0,1,2.32-.53,13.43,13.43,0,0,0,5.09.3,53.27,53.27,0,0,0,10-2.26c0.36-.13,1-0.26,1,0.24,0.11,1.7,1.17,3.11,1.3,4.79-0.11,4.95-.24,9.89-0.33,14.84a1,1,0,0,1-1.11,1.14c-6.63.26-11.37-3.52-12.48-10-0.12-.72-0.33-0.87-1-0.64a33.93,33.93,0,0,1-5.05,1.43,3.27,3.27,0,0,0-1.15.75c0-.32-0.1-0.47-0.51-0.41-1.3.19-2.61,0.3-3.92,0.44A15,15,0,0,1,367.68,316.55Z" transform="translate(-1.19 -4.82)" style="fill:#b2794d"/><path d="M398.19,309.44c-0.13-1.67-1.2-3.09-1.3-4.79,0-.51-0.65-0.37-1-0.24a53.27,53.27,0,0,1-10,2.26,13.43,13.43,0,0,1-5.09-.3,2.75,2.75,0,0,0-2.32.53c-2.63,1.73-5.41,3.23-7.94,5.12a2.18,2.18,0,0,1-.67.21c0.95-2.27,1.88-4.54,2.84-6.79a1.33,1.33,0,0,1,1.44-.63,33.82,33.82,0,0,0,11.77-2.17,17.16,17.16,0,0,0,6.72-4.16,1.74,1.74,0,0,1,2.16-.43,38.42,38.42,0,0,0,9.65,2.55c2.16,0.24,4.33.7,6.52,0.14q-0.16,6.34-.33,12.67c0,1.61-.13,1.72-1.7,1.67-4.29-.15-7.95-1.53-10.33-5.37A1.21,1.21,0,0,0,398.19,309.44Z" transform="translate(-1.19 -4.82)" style="fill:#c68a5b"/><path d="M237.36,506.89a34.15,34.15,0,0,0,1.43-6.74,126.8,126.8,0,0,0,1.44-18.7,5.77,5.77,0,0,1,.13-0.82,5.31,5.31,0,0,1,.79,2.56q3.13,14.55,6.65,29c0.52,2.13,1,4.27,1.58,6.38a0.94,0.94,0,0,1-.64,1.34c-4.88,2.13-10.63,2.14-14.7-2.79a2.77,2.77,0,0,0-.26-0.25,8.6,8.6,0,0,1,1.07-2.69A28.7,28.7,0,0,0,237.36,506.89Z" transform="translate(-1.19 -4.82)" style="fill:#daa77f"/><path d="M183.89,503.93c-0.41,2.59-.77,5.18-1.26,7.75-0.35,1.82.76,2.9,1.79,4,3.27,3.62,6.78,7,10.21,10.47a1.66,1.66,0,0,1,.74,1c-2.56.95-5.29,1.18-7.91,1.91a0.56,0.56,0,0,1-.63-0.23,5,5,0,0,0-1.56-1.24,33.55,33.55,0,0,0-4.78-3.51c-1.81-1.68-3.87-3.06-5.82-4.57a2.08,2.08,0,0,1-.94-1.91,21.16,21.16,0,0,1,1.66-8.49A8.82,8.82,0,0,1,183.89,503.93Z" transform="translate(-1.19 -4.82)" style="fill:#daa77f"/><path d="M180.49,524.17a33.55,33.55,0,0,1,4.78,3.51,5,5,0,0,1,1.56,1.24,0.56,0.56,0,0,0,.63.23c2.61-.73,5.35-1,7.91-1.91,1,0,1.41.85,2,1.35a43.28,43.28,0,0,0,8.64,6,0.66,0.66,0,0,1,.12.32c-7.17.47-14.33,0.92-21.5,1.42a2.3,2.3,0,0,1-2.08-.83,10.67,10.67,0,0,1-2.48-10A2.43,2.43,0,0,1,180.49,524.17Z" transform="translate(-1.19 -4.82)" style="fill:#c68a5b"/><path d="M63.89,52.81c1.41,0.12,2.58,1,4,1.29a27,27,0,0,0,4.1.64,2,2,0,0,1,.54.2A4.08,4.08,0,0,0,68.3,57a1.08,1.08,0,0,1-.87.56,17.18,17.18,0,0,0-2.6-3.14l-0.06,0v0Z" transform="translate(-1.19 -4.82)" style="fill:#c68a5b"/><path d="M64.83,54.48a17.18,17.18,0,0,1,2.6,3.14,1,1,0,0,1-.92,1Z" transform="translate(-1.19 -4.82)" style="fill:#9d4735"/><path d="M335,63.49c-0.31.09-.38-0.09-0.38-0.34A0.34,0.34,0,0,1,335,63.49Z" transform="translate(-1.19 -4.82)" style="fill:#cc8027"/><path d="M334.51,63.11a0.28,0.28,0,0,1-.38-0.3A0.33,0.33,0,0,1,334.51,63.11Z" transform="translate(-1.19 -4.82)" style="fill:#cc8027"/><path d="M334.14,62.82a0.19,0.19,0,0,1-.25-0.23A0.22,0.22,0,0,1,334.14,62.82Z" transform="translate(-1.19 -4.82)" style="fill:#cc8027"/><path d="M64.76,54.41v0Z" transform="translate(-1.19 -4.82)" style="fill:#9d4735"/><path d="M249.69,230.65c-2.25,7.94-7.43,13.65-14,18.24-7.42,5.17-15.74,8.24-24.48,10.3a119.75,119.75,0,0,1-20.83,3A94,94,0,0,1,158,258.72a45.78,45.78,0,0,1-17.32-9c-5.89-5.1-7.41-11.49-5.69-18.86,2.11-9,8.19-14,16.71-16.56,1.69-.5,1.68-0.42.73-2-5.44-8.92-6-21.67,1.18-30.47a28.53,28.53,0,0,1,9.66-7.55c6.36-3.11,13-5.08,20.17-4.85,9.42,0.3,16.23,4.69,20,13.48a1.06,1.06,0,0,0,.18.21c0.46-1.31.82-2.65,1.37-3.9,3.3-7.49,9.39-10.46,17.35-8.58a13.35,13.35,0,0,1,8.94,7,32.68,32.68,0,0,1,3.44,12.87,69.24,69.24,0,0,1-.27,14.59,1.08,1.08,0,0,0,1,1.43,17.71,17.71,0,0,1,10,6.76c0.82,1.27,1.66,2.53,2.45,3.82A16.8,16.8,0,0,1,249.69,230.65Zm-38.25-18.24c-1.49,2-3.14,3.84-3.89,6.59,1.39-.8,2.46-1.5,3.58-2.07,2.63-1.33,5.24-2.86,8.32-2.59,3.37,0.29,6,2.56,3.84,6.21-0.11.19-.4,0.37-0.17,0.61a0.56,0.56,0,0,0,.66,0c2.65-1,3.94-2.95,2.92-5.81-0.44-1.23-1.39-2.13-1.88-3.3a18.22,18.22,0,0,0,1.9-1.22c2.8-2.31,3.45-5.59,3.89-8.92s-0.43-6.5-1.13-9.67a11.82,11.82,0,0,0-10.12-9,8.22,8.22,0,0,0-8.6,4.54,21.22,21.22,0,0,0-1.78,7.07,39.05,39.05,0,0,0,.74,11.85c0,0.16-.15.68,0.39,0.4C210.44,208.86,210.54,210.73,211.43,212.41Zm-16.92,1.89a17.67,17.67,0,0,0-.06-2.6,10.77,10.77,0,0,0,.41-2.92,45.2,45.2,0,0,0-.72-7.71c-0.75-4.46-2-8.74-4.77-12.44-3.17-4.19-7.86-5.07-12.38-3.78a16.43,16.43,0,0,0-6.72,3.95,11.66,11.66,0,0,0-3.91,6,27.06,27.06,0,0,0,1.14,15.6c1.83,4.64,4.82,8,10.22,8.4a8.49,8.49,0,0,0,3.76-.16,9.53,9.53,0,0,0,2.12,1,17.07,17.07,0,0,0-.9,2.83c-0.64,4.28,1.83,7.19,6.22,6.4a1.33,1.33,0,0,0-.82-0.78c-1.75-1.42-2.42-3.3-1.62-4.81a7.2,7.2,0,0,1,5.33-3.83,33.17,33.17,0,0,1,10.91.37,1,1,0,0,0,1-.13C201,217.1,198.15,215,194.51,214.29Zm-43.13,28.3a6.19,6.19,0,0,0,2.94,1.12,3.2,3.2,0,0,0,3.43-1.13c0.48-.61.76-0.47,1.21-0.14a56.9,56.9,0,0,0,15.44,7.71A59.27,59.27,0,0,0,188.76,253a56,56,0,0,0,12.87-.38,40.29,40.29,0,0,0,14.87-5.2A29.17,29.17,0,0,0,226,238.7a0.85,0.85,0,0,1,1.36-.35,2.64,2.64,0,0,0,1.46.46,1.24,1.24,0,0,0,1.21-1c0.2-.65-0.34-0.78-0.79-1a13.19,13.19,0,0,1-2-.86c-1-.63-1.56-0.17-1.93.73a12.93,12.93,0,0,1-2.48,3.48,32.18,32.18,0,0,1-13.39,8.86,42.12,42.12,0,0,1-20.82,1.88,66.57,66.57,0,0,1-16-4.17,34.6,34.6,0,0,1-11.54-7.06c-1.69-1.67-1.72-1.72-3.85-.55C155.3,240.22,153.42,241.39,151.38,242.59Zm49.33-20a4.69,4.69,0,0,0-2.37-.93c-3.57-1.06-5.94-.11-7.76,2.38a2.15,2.15,0,0,0,.17,2.82c0.36,0.35.64,0.48,0.88-.09,1.08-2.54,3.35-3.29,5.77-3.85C198.42,222.7,199.45,222.79,200.71,222.6Zm10-3a0.85,0.85,0,0,0,.27.18c0.16,0,.31-0.06.46-0.09,3.21-.48,6.44-1.09,9,1.67,0.35,0.37.49,0.17,0.7-.14a1.86,1.86,0,0,0-.36-2.39c-1.7-2-4.44-2.45-7.31-1.13A8.8,8.8,0,0,0,210.75,219.61Z" transform="translate(-1.19 -4.82)" style="fill:#ecba95"/><path d="M243.12,195.85c-1-.49-1.91-1-2.87-1.47s-0.5-1.12-.41-1.69a62.82,62.82,0,0,0,.64-10.87c0-1-.1-2-0.15-3,1.07-.82,2.1-1.69,3.21-2.46a3.25,3.25,0,0,1,3.8-.21,3.34,3.34,0,0,1,1.17,3.64,9,9,0,0,0-.26,1.28c0,0.41-.48,1-0.08,1.19s0.81-.36,1.22-0.56a1.74,1.74,0,0,0,.41-0.43,13.69,13.69,0,0,0,3.37-7.62c0.49-3.83-1.37-6.59-5.6-6.14a14,14,0,0,0-3.43,1c-1.77.67-3.18,1.93-4.83,2.79-0.48-2.49-1.38-4.88-1.69-7.4a22.74,22.74,0,0,1,7.82-3.21,9.14,9.14,0,0,1,9.24,3.48c4.11,5.1,4.43,11.31.92,17.71-2.91,5.32-7.15,9.47-11.75,13.3Z" transform="translate(-1.19 -4.82)" style="fill:#ecba95"/><path d="M53.92,340.79c-5.2-7.52-9.16-15.71-12.9-24A202.33,202.33,0,0,1,29,281.33c-2.12-8.73-3.73-17.55-5-26.44q-1.68-11.73-2.44-23.56a258.81,258.81,0,0,1-.32-26,219.63,219.63,0,0,1,2.94-28.67A212.52,212.52,0,0,1,32,144.87a188,188,0,0,1,7.67-19.37A195.86,195.86,0,0,1,71.59,76.63a11.55,11.55,0,0,1,.88-0.81c1.16,3.52,2.19,7.08,3.16,10.65,1.33,4.92,2.69,9.84,4,14.76,0.52,1.92,1,3.86,1.46,5.79a1.89,1.89,0,0,1-.72,1.8c-2.57,2.89-5.07,5.83-7.43,8.9-2.57,3.35-5,6.78-7.34,10.32a152.36,152.36,0,0,0-8.46,14.85,145.25,145.25,0,0,0-8.23,20.23A140.83,140.83,0,0,0,44.52,180q-1.33,7-2.1,14a159.28,159.28,0,0,0-.86,21.63c0.13,4.93.54,9.86,1.08,14.77q1,9,2.78,17.8c0.9,4.49,2.07,8.93,3.4,13.32a156.11,156.11,0,0,0,5.65,15.86,153.21,153.21,0,0,0,7.87,16,141.34,141.34,0,0,0,11.46,17,135.75,135.75,0,0,0,13.72,15,149.88,149.88,0,0,0,32.74,23.43,168.1,168.1,0,0,0,24,10.47,114.54,114.54,0,0,0,12.61,3.7c1.43,0.32,1.92,1.39,2.59,2.28,4.18,5.49,8.77,10.63,13.14,16,3.46,4.22,6.95,8.41,10.06,12.91a102.06,102.06,0,0,1,8,13.46,27.79,27.79,0,0,1,2.09,4.95,180.07,180.07,0,0,1-18.2-2.16A198.17,198.17,0,0,1,57.57,345.16a20.78,20.78,0,0,0-3.33-3.66l0,0A1,1,0,0,0,53.92,340.79Z" transform="translate(-1.19 -4.82)" style="fill:#35351f"/><path d="M111.6,219.63c1.12,2.47,2.26,4.93,3.36,7.41,0.55,1.24-.41,2.15-0.89,3.07-1.39,2.7-2.46,5.52-3.59,8.33a4.64,4.64,0,0,0-.12.84,22.87,22.87,0,0,1,4.35-2.18c1.15-.48,2.38-0.67,3.54-1.1a1,1,0,0,1,1.29.68c1.77,3.59,3.53,7.17,5.38,10.72,3.58,6.86,7.23,13.67,11.1,20.37,1.12,1.93,2.28,3.84,3.36,5.79,0.65,1.19.3,2.52,0.23,3.77,0,0.79-.15,1.59-0.15,2.38,0,5.64-.12,11.28,0,16.92,0.11,4,.63,7.94.85,11.92,0.14,2.51.34,5,.51,7.52a107.34,107.34,0,0,0,2.22,16.19,70.89,70.89,0,0,0,6.06,16.93c0.13,0.24.23,0.5,0.4,0.88a13.26,13.26,0,0,1-3.47-1.05,133.13,133.13,0,0,1-32.14-16.92,135.24,135.24,0,0,1-17-14.29A130,130,0,0,1,82.49,300.7a144.42,144.42,0,0,1-14.61-26,171.08,171.08,0,0,1-8-22.9c-1.35-4.87-2.51-9.8-3.39-14.78-1-5.48-1.84-11-2.33-16.54a151.28,151.28,0,0,1-.34-18.56,107.64,107.64,0,0,1,1.05-10.81,130.33,130.33,0,0,1,5.16-22.44,124.24,124.24,0,0,1,8.72-20.54,127.73,127.73,0,0,1,8.59-14c2.34-3.27,4.64-6.57,7.26-9.64a1,1,0,0,1,.28-0.39,52.71,52.71,0,0,1,2,7.74c1.57,7.07,3.12,14.15,4.5,21.26,1.45,7.46,2.76,15,4.62,22.33a1.11,1.11,0,0,1,0,.24c-0.57.17-1.15,0.34-1.72,0.52-5.19,1.68-8.94,4.85-10.41,10.29a26.38,26.38,0,0,0,6.27,23.4C96.07,215.81,103.37,218.73,111.6,219.63Z" transform="translate(-1.19 -4.82)" style="fill:#35351f"/><path d="M362.89,286.8a49.22,49.22,0,0,1-5.27,8.44c-1.27,1.71-2.82,3.22-4.25,4.81-1,1.06-1.94,2.1-2.91,3.15a1.16,1.16,0,0,0-.1,1.43,19.28,19.28,0,0,1,1.94,8.4,17.86,17.86,0,0,1-4.1,11.54c-1.44,1.82-3.15,3.36-4.71,5-1.83,2-3.52,4.09-5.36,6.06-2.69,2.88-5.21,5.95-8.53,8.18a8,8,0,0,1-2.65,1.31,1.27,1.27,0,0,0-1,.87c-2.13.08-4.25,0.55-6.39-.05a19.14,19.14,0,0,1-7.15-3.92L311.1,341a21.45,21.45,0,0,1-4.05-7.12c-2.28-7.36.46-16.3,6.32-21.3,4.86-4.15,9.49-8.56,14.21-12.86,3-2.75,6-5.52,9-8.28,2.05-1.53,3.83-3.37,5.74-5.06,5.56-4.93,11.1-9.88,16.88-14.56a1.23,1.23,0,0,1,1.76,0c3.18,2.14,4.52,5.9,3.59,10.3A20.8,20.8,0,0,1,362.89,286.8Z" transform="translate(-1.19 -4.82)" style="fill:#ecba95"/><path d="M168.22,315.84c0.12-6.9,1.51-13.48,5.19-19.42a20.08,20.08,0,0,1,7.61-7.29,10.28,10.28,0,0,1,9.76-.16,38.27,38.27,0,0,1,10.82,8,55.57,55.57,0,0,1,10.23,13.67,24.32,24.32,0,0,1,1.39,3.44,5.94,5.94,0,0,1-.39,5c-5.27,9.48-13,15.73-23.73,18a17.8,17.8,0,0,1-12-1.42c-4.25-2.18-6.26-6.14-7.57-10.49A31.69,31.69,0,0,1,168.22,315.84Z" transform="translate(-1.19 -4.82)" style="fill:#ecba95"/><path d="M111.6,219.63c-8.23-.89-15.53-3.82-21.46-9.76a26.38,26.38,0,0,1-6.27-23.4c1.47-5.44,5.21-8.61,10.41-10.29,0.57-.18,1.14-0.35,1.72-0.52a35.75,35.75,0,0,1,8.21-.68c5.11,0.3,10.19.77,14.95,2.89,5.3,2.36,9.15,6.36,12.25,11.12a58.81,58.81,0,0,1,7.86,19.31,1.85,1.85,0,0,1-.41,1.74c-3.94,5-9.2,7.79-15.33,9.08A39.35,39.35,0,0,1,111.6,219.63Zm-4.31-8A41.37,41.37,0,0,0,118,212c3.56-.39,7-1.05,9.94-3.27,1.39-1,1.91-2,1.54-3.67a34.47,34.47,0,0,0-2.28-6.4,29,29,0,0,0-10.9-12.86,23.15,23.15,0,0,0-16.49-3.83c-3.32.5-6.47,1.49-8.81,4.11a6.71,6.71,0,0,0-1.77,6.5c0.17,0.65.32,0.88,1.13,0.52a28.93,28.93,0,0,1,11.69-2.55,15,15,0,0,1,13.86,9.24,7.41,7.41,0,0,1-1.92,7.86A21.21,21.21,0,0,1,107.29,211.59Z" transform="translate(-1.19 -4.82)" style="fill:#ecba95"/><path d="M83.75,63.4c1.14,1.35,2.23.94,3.6,0.18,4.23-2.35,8.52-4.61,13-6.53a1.43,1.43,0,0,0,.93-1.68c-0.16-2.37-.31-4.75-0.46-7.12a8,8,0,0,1,3.42,2.55c0.65,0.76-.06,2.06-0.17,3.1A10.23,10.23,0,0,0,105.56,61c0.44,0.65,1.31.91,1.51,1.75A33.6,33.6,0,0,1,94,68.85a22.41,22.41,0,0,1-13.56-1.19,1,1,0,0,1,.48-0.86c0.84-.76,1.62-1.58,2.43-2.37A1.15,1.15,0,0,0,83.75,63.4Z" transform="translate(-1.19 -4.82)" style="fill:#c68a5b"/><path d="M239.3,171.34c1.65-.85,3.06-2.12,4.83-2.79a14,14,0,0,1,3.43-1c4.23-.45,6.09,2.31,5.6,6.14a13.69,13.69,0,0,1-3.37,7.62,1.74,1.74,0,0,1-.41.43c-0.41.21-.76,0.84-1.22,0.56s0.05-.78.08-1.19a9,9,0,0,1,.26-1.28,3.34,3.34,0,0,0-1.17-3.64,3.25,3.25,0,0,0-3.8.21c-1.11.77-2.14,1.63-3.21,2.46C240.11,176.32,239.69,173.84,239.3,171.34Z" transform="translate(-1.19 -4.82)" style="fill:#b59378"/><path d="M379.34,243.2a35.32,35.32,0,0,1,10.93.31c1.61,0.26,3.21.54,4.81,0.87a2,2,0,0,1,1.55,1.16c1.28,2.66,2.6,5.29,3.93,7.92a0.92,0.92,0,0,1-.32,1.23,16.43,16.43,0,0,0-4.53,6.48,7.22,7.22,0,0,0,1.51,7.55c-1.41.72-2.34,2-3.49,3-0.4.35-.73,0.63-1.22,0.21-3-2.58-5.94-5.27-7-9.29a9.08,9.08,0,0,1,2.25-8.76,15.08,15.08,0,0,1,3.07-2.73A31.26,31.26,0,0,1,379.34,243.2Z" transform="translate(-1.19 -4.82)" style="fill:#c68a5b"/><path d="M181.48,218.63a8.49,8.49,0,0,1-3.76.16c-5.4-.36-8.39-3.76-10.22-8.4a27.06,27.06,0,0,1-1.14-15.6,11.66,11.66,0,0,1,3.91-6,16.43,16.43,0,0,1,6.72-3.95c4.52-1.29,9.21-.41,12.38,3.78,2.79,3.7,4,8,4.77,12.44a45.2,45.2,0,0,1,.72,7.71,10.76,10.76,0,0,1-.41,2.92,19.52,19.52,0,0,0-2.71-8.7,6.1,6.1,0,0,0-6.77-2.63,10.16,10.16,0,0,0-6.91,7.69A11.47,11.47,0,0,0,181.48,218.63Z" transform="translate(-1.19 -4.82)" style="fill:#e2e1e1"/><path d="M210.13,207c-0.54.28-.36-0.24-0.39-0.4a39.05,39.05,0,0,1-.74-11.85,21.22,21.22,0,0,1,1.78-7.07,8.22,8.22,0,0,1,8.6-4.54,11.82,11.82,0,0,1,10.12,9c0.7,3.17,1.56,6.37,1.13,9.67s-1.09,6.61-3.89,8.92a18.11,18.11,0,0,1-1.9,1.22,18.16,18.16,0,0,1-2.36-1.52c0.14-.33.28-0.66,0.41-1,2-5.08.08-10.75-4.35-13.12a5.19,5.19,0,0,0-7.79,3.08A18.45,18.45,0,0,0,210.13,207Z" transform="translate(-1.19 -4.82)" style="fill:#e2e1e1"/><path d="M181.48,218.63a11.47,11.47,0,0,1-3.43-10.57,10.16,10.16,0,0,1,6.91-7.69,6.1,6.1,0,0,1,6.77,2.63,19.52,19.52,0,0,1,2.71,8.7,17.74,17.74,0,0,1,.07,2.6c-4.87-.77-8.47,1.09-10.91,5.31A9.53,9.53,0,0,1,181.48,218.63Z" transform="translate(-1.19 -4.82)" style="fill:#474747"/><path d="M151.38,242.59c2-1.2,3.92-2.37,5.86-3.43,2.13-1.17,2.15-1.12,3.85.55a34.6,34.6,0,0,0,11.54,7.06,66.57,66.57,0,0,0,16,4.17,42.12,42.12,0,0,0,20.82-1.88,32.18,32.18,0,0,0,13.39-8.86,12.93,12.93,0,0,0,2.48-3.48c0.37-.9.91-1.36,1.93-0.73a13.19,13.19,0,0,0,2,.86c0.45,0.18,1,.32.79,1a1.24,1.24,0,0,1-1.21,1,2.64,2.64,0,0,1-1.46-.46,0.85,0.85,0,0,0-1.36.35,29.17,29.17,0,0,1-9.49,8.73,40.29,40.29,0,0,1-14.87,5.2,56,56,0,0,1-12.87.38,59.27,59.27,0,0,1-14.35-2.87A56.9,56.9,0,0,1,159,242.44c-0.45-.33-0.73-0.47-1.21.14a3.2,3.2,0,0,1-3.43,1.13A6.19,6.19,0,0,1,151.38,242.59Z" transform="translate(-1.19 -4.82)" style="fill:#b59378"/><path d="M210.13,207a18.45,18.45,0,0,1,.61-7.59,5.19,5.19,0,0,1,7.79-3.08c4.43,2.37,6.31,8,4.35,13.12-0.13.33-.27,0.66-0.41,1a9.69,9.69,0,0,0-6.5-.63,16.74,16.74,0,0,0-4.54,2.55C210.54,210.73,210.44,208.86,210.13,207Z" transform="translate(-1.19 -4.82)" style="fill:#474747"/><path d="M183.6,219.6c2.45-4.22,6-6.08,10.91-5.31,3.64,0.74,6.5,2.8,9.16,5.34a1,1,0,0,1-1,.13,33.17,33.17,0,0,0-10.91-.37,7.2,7.2,0,0,0-5.33,3.83c-0.8,1.52-.13,3.39,1.62,4.81a1.33,1.33,0,0,1,.82.78c-4.39.8-6.85-2.12-6.22-6.4A17.07,17.07,0,0,1,183.6,219.6Z" transform="translate(-1.19 -4.82)" style="fill:#b59378"/><path d="M211.43,212.41a16.74,16.74,0,0,1,4.54-2.55,9.69,9.69,0,0,1,6.5.63,18.16,18.16,0,0,0,2.36,1.52c0.5,1.18,1.44,2.07,1.88,3.31,1,2.86-.27,4.81-2.92,5.81a0.56,0.56,0,0,1-.66,0c-0.23-.24.05-0.42,0.17-0.61,2.2-3.64-.47-5.91-3.84-6.21-3.09-.27-5.7,1.26-8.32,2.59-1.13.57-2.2,1.26-3.58,2.07C208.3,216.25,209.95,214.37,211.43,212.41Z" transform="translate(-1.19 -4.82)" style="fill:#b59378"/><path d="M200.71,222.6c-1.26.19-2.29,0.1-3.3,0.33-2.42.56-4.69,1.31-5.77,3.85-0.24.57-.52,0.44-0.88,0.09a2.15,2.15,0,0,1-.17-2.82c1.82-2.49,4.19-3.45,7.76-2.38A4.69,4.69,0,0,1,200.71,222.6Z" transform="translate(-1.19 -4.82)" style="fill:#b59378"/><path d="M210.75,219.61a8.8,8.8,0,0,1,2.81-1.9c2.87-1.31,5.61-.9,7.31,1.13a1.86,1.86,0,0,1,.36,2.39c-0.2.32-.35,0.51-0.7,0.14-2.6-2.76-5.84-2.15-9-1.67-0.15,0-.31.08-0.46,0.09A0.85,0.85,0,0,1,210.75,219.61Z" transform="translate(-1.19 -4.82)" style="fill:#b59378"/><path d="M107.29,211.59a21.21,21.21,0,0,0,6.74-4,7.41,7.41,0,0,0,1.92-7.86,15,15,0,0,0-13.86-9.24,28.93,28.93,0,0,0-11.69,2.55c-0.81.36-1,.13-1.13-0.52A6.71,6.71,0,0,1,91,186c2.34-2.63,5.48-3.62,8.81-4.11a23.15,23.15,0,0,1,16.49,3.83,29,29,0,0,1,10.9,12.86,34.47,34.47,0,0,1,2.28,6.4c0.37,1.67-.16,2.63-1.54,3.67-3,2.21-6.38,2.88-9.94,3.27A41.37,41.37,0,0,1,107.29,211.59Z" transform="translate(-1.19 -4.82)" style="fill:#b59378"/></svg>